<svg width="145" height="87" viewBox="0 0 145 87" fill="none" xmlns="http://www.w3.org/2000/svg">
<path fill-rule="evenodd" clip-rule="evenodd" d="M98.2125 33.375C94.6687 16.1625 79.4812 3 60.75 3C46.0687 3 33.4125 11.1 27.3375 23.25C11.6438 25.275 0 37.9313 0 53.625C0 70.3313 13.6687 84 30.375 84H96.1875C110.363 84 121.5 72.8625 121.5 58.6875C121.5 45.525 110.869 34.3875 98.2125 33.375Z" fill="#24B53C"/>
<path fill-rule="evenodd" clip-rule="evenodd" d="M118.462 33.375C114.919 16.1625 99.7313 3 81 3C66.3187 3 53.6625 11.1 47.5875 23.25C31.8938 25.275 20.25 37.9313 20.25 53.625C20.25 70.3312 33.9188 84 50.625 84H116.438C130.612 84 141.75 72.8625 141.75 58.6875C141.75 45.525 131.119 34.3875 118.462 33.375V33.375Z" stroke="white" stroke-width="5"/>
</svg>
