<svg width="186" height="47" viewBox="0 0 186 47" fill="none" xmlns="http://www.w3.org/2000/svg">
<path d="M23.3524 41.2626C13.285 41.2626 5.12438 33.1742 5.12438 23.1947C5.12438 14.7954 10.9066 7.73479 18.7415 5.71045C9.19342 7.12159 1.86938 15.2817 1.86938 25.1377C1.86938 35.989 10.7435 44.7858 21.6897 44.7858C32.6358 44.7858 41.5085 35.989 41.5085 25.1377C41.5085 25.0365 41.5024 24.9346 41.4998 24.8312C40.6666 34.0434 32.861 41.2626 23.3524 41.2626Z" fill="#007DC3"/>
<path d="M23.8994 8.50475C32.6102 9.13512 39.1544 16.2181 38.5196 24.8514C38.2749 28.2134 36.9744 31.2443 34.9683 33.6605C37.6856 31.1021 39.4873 27.5696 39.7798 23.5705C40.4071 15.0492 33.9442 7.63627 25.3468 7.01598C21.2724 6.72226 17.4497 8.00912 14.4861 10.3488C17.2109 8.69211 20.4697 8.25731 23.8994 8.50475Z" fill="#007DC3"/>
<path d="M35.0613 21.3038C34.0041 17.7059 31.4829 13.4971 26.93 9.81682C23.2737 6.86017 22.431 0.727051 22.431 0.727051C22.431 0.727051 17.9776 4.90375 15.927 7.83241C15.3653 8.63819 14.8238 9.46748 14.3069 10.3128C17.0065 12.7205 27.8175 21.8935 35.0613 21.3038Z" fill="#007DC3"/>
<path d="M20.5657 22.0266L28.9041 25.9148L27.5546 27.1636L34.7299 29.9538C35.3343 28.4758 35.6667 26.8665 35.6667 25.1833C35.6667 24.4839 35.5959 23.7244 35.4495 22.9238C35.1129 22.9581 34.7755 22.9783 34.4287 22.9783C26.7003 22.9783 16.5494 14.5271 13.4506 11.7769C12.9702 12.6282 12.5225 13.4892 12.1053 14.3528L22.1023 20.1515L20.5657 22.0266Z" fill="#FDB913"/>
<path d="M16.5716 26.5544C22.2393 30.699 28.058 32.4121 33.8861 31.6541C34.1414 31.2241 34.3734 30.78 34.5767 30.3183L23.4355 28.1428L24.7684 26.5618L15.8904 23.3406L17.7022 20.821L10.5364 18.0356C10.2709 18.7604 10.0382 19.4755 9.83716 20.1727C10.7393 21.2883 13.1185 24.0273 16.5716 26.5544Z" fill="#FDB913"/>
<path d="M9.21594 27.3691C10.2845 33.4862 15.7564 38.1451 22.3455 38.1451C23.7895 38.1451 25.1762 37.9197 26.4774 37.5058C22.2823 37.0915 18.1153 35.3012 14.1924 32.1952C12.0669 30.5105 10.3873 28.7471 9.21594 27.3691Z" fill="#8DC63F"/>
<path d="M32.6248 33.4291C32.1805 33.4549 31.737 33.4739 31.2931 33.4739C25.9808 33.4739 20.5999 31.5637 15.5403 27.8547C12.7017 25.7695 10.5891 23.5918 9.34844 22.1758C9.19256 22.9775 9.09203 23.7455 9.04797 24.4681C9.87594 25.6042 12.0635 28.4003 15.2696 30.9319C20.0016 34.6689 24.8994 36.3294 29.8529 35.889C30.8906 35.1974 31.8243 34.37 32.6248 33.4291Z" fill="#8DC63F"/>
<path d="M15.8905 23.3408L24.7684 26.562L23.4355 28.143L34.5767 30.3185C34.6313 30.1965 34.6814 30.0755 34.7296 29.9531L27.5543 27.1629L28.9037 25.9141L20.5657 22.0263L22.1019 20.1513L12.105 14.3525C11.5082 15.5898 10.9795 16.8266 10.536 18.0358L17.7019 20.8212L15.8905 23.3408Z" fill="white"/>
<path d="M35.4491 22.9233C35.3516 22.3997 35.2266 21.8604 35.0613 21.3036C27.8179 21.8936 17.0069 12.7203 14.3073 10.313C14.0132 10.7967 13.727 11.2856 13.4507 11.7764C16.5491 14.5266 26.7 22.9778 34.4288 22.9778C34.7752 22.9778 35.1125 22.9577 35.4491 22.9233Z" fill="white"/>
<path d="M15.5404 27.8547C20.5996 31.5638 25.9805 33.4739 31.2931 33.4739C31.737 33.4739 32.1806 33.4549 32.6249 33.4291C33.0951 32.8756 33.5146 32.2789 33.8862 31.6541C28.0581 32.4121 22.2394 30.699 16.5716 26.5544C13.1186 24.0273 10.7394 21.2883 9.83649 20.1724C9.63919 20.8598 9.47767 21.5286 9.34814 22.1762C10.5891 23.5918 12.7018 25.7695 15.5404 27.8547Z" fill="white"/>
<path d="M15.2696 30.9321C12.0635 28.4005 9.87598 25.6043 9.04801 24.4683C9.03258 24.7101 9.02429 24.9497 9.02429 25.183C9.02429 25.9276 9.09395 26.6557 9.21632 27.3689C10.3877 28.7472 12.0673 30.5103 14.1928 32.195C18.1157 35.301 22.2826 37.0913 26.4778 37.5056C27.6894 37.1215 28.8231 36.5755 29.8537 35.8892C24.8994 36.3296 20.0021 34.6691 15.2696 30.9321Z" fill="white"/>
<path d="M26.1145 12.1474C26.1145 12.7853 25.5926 13.3014 24.9503 13.3014C24.3053 13.3014 23.7831 12.7853 23.7831 12.1474C23.7831 11.5096 24.3053 10.9912 24.9503 10.9912C25.5926 10.9916 26.1145 11.5096 26.1145 12.1474Z" fill="white"/>
<path d="M28.5965 15.3863C28.5965 16.2921 27.8551 17.0262 26.9406 17.0262C26.029 17.0262 25.2854 16.2921 25.2854 15.3863C25.2854 14.4827 26.0294 13.7471 26.9406 13.7471C27.8551 13.7471 28.5965 14.4827 28.5965 15.3863Z" fill="white"/>
<path d="M48.5885 18.8323L49.3099 17.9863C50.3845 18.9499 51.4146 19.4302 52.842 19.4302C54.2261 19.4302 55.1388 18.7002 55.1388 17.6955V17.666C55.1388 16.7166 54.6233 16.1773 52.4599 15.7253C50.0897 15.2136 49.0004 14.4563 49.0004 12.7772V12.7489C49.0004 11.1436 50.4285 9.9624 52.3861 9.9624C53.8876 9.9624 54.9622 10.3853 56.0063 11.2175L55.3297 12.1069C54.373 11.334 53.4162 10.9981 52.3567 10.9981C51.0167 10.9981 50.1639 11.7274 50.1639 12.6466V12.6761C50.1639 13.6386 50.694 14.1783 52.9606 14.6601C55.2566 15.1565 56.3162 15.9884 56.3162 17.5481V17.5776C56.3162 19.3283 54.844 20.4667 52.7987 20.4667C51.1639 20.4663 49.825 19.9274 48.5885 18.8323Z" fill="#007DC3"/>
<path d="M57.9202 18.1318V18.1027C57.9202 16.5127 59.2455 15.6663 61.1737 15.6663C62.1451 15.6663 62.8364 15.7973 63.5137 15.9876V15.7245C63.5137 14.3671 62.6745 13.6673 61.2471 13.6673C60.3483 13.6673 59.6424 13.9009 58.9356 14.2219L58.5975 13.3027C59.4368 12.9231 60.261 12.6753 61.3642 12.6753C62.4391 12.6753 63.2637 12.9522 63.8225 13.5072C64.3379 14.0174 64.6026 14.747 64.6026 15.7099V20.3199H63.5134V19.1816C62.984 19.8676 62.0999 20.4808 60.7606 20.4808C59.3483 20.4808 57.9202 19.6788 57.9202 18.1318ZM63.528 17.5477V16.8184C62.9685 16.6583 62.2178 16.4974 61.2904 16.4974C59.863 16.4974 59.0689 17.1114 59.0689 18.059V18.0885C59.0689 19.0364 59.9515 19.5911 60.9824 19.5911C62.3793 19.5907 63.528 18.745 63.528 17.5477Z" fill="#007DC3"/>
<path d="M66.7221 12.7766H67.8554V14.0903C68.3554 13.2737 69.1502 12.6172 70.4601 12.6172C72.3002 12.6172 73.3751 13.8425 73.3751 15.6369V20.3201H72.2411V15.9142C72.2411 14.5131 71.4756 13.6379 70.1363 13.6379C68.8264 13.6379 67.855 14.5867 67.855 16.0015V20.3201H66.7217V12.7766H66.7221Z" fill="#007DC3"/>
<path d="M80.1001 10.1079H87.504V11.1731H81.2628V14.8202H86.8413V15.8704H81.2628V20.3203H80.1001V10.1079Z" fill="#007DC3"/>
<path d="M88.682 12.7767H89.8153V14.7469C90.3741 13.4925 91.478 12.5878 92.9201 12.6457V13.8572H92.8328C91.17 13.8572 89.8153 15.0388 89.8153 17.3154V20.3202H88.682V12.7767Z" fill="#007DC3"/>
<path d="M94.0677 18.1318V18.1027C94.0677 16.5127 95.3923 15.6663 97.3212 15.6663C98.2919 15.6663 98.9839 15.7973 99.6605 15.9876V15.7245C99.6605 14.3671 98.8213 13.6673 97.3947 13.6673C96.4967 13.6673 95.7899 13.9009 95.084 14.2219L94.7451 13.3027C95.5844 12.9231 96.4078 12.6753 97.5125 12.6753C98.5863 12.6753 99.4105 12.9522 99.97 13.5072C100.485 14.0174 100.749 14.747 100.749 15.7099V20.3199H99.6602V19.1816C99.1308 19.8676 98.2475 20.4808 96.9082 20.4808C95.4951 20.4808 94.0677 19.6788 94.0677 18.1318ZM99.676 17.5477V16.8184C99.1157 16.6583 98.3657 16.4974 97.4391 16.4974C96.011 16.4974 95.2169 17.1114 95.2169 18.059V18.0885C95.2169 19.0364 96.1002 19.5911 97.1296 19.5911C98.528 19.5907 99.676 18.745 99.676 17.5477Z" fill="#007DC3"/>
<path d="M102.869 12.7766H104.003V14.0903C104.503 13.2737 105.299 12.6172 106.608 12.6172C108.448 12.6172 109.522 13.8425 109.522 15.6369V20.3201H108.389V15.9142C108.389 14.5131 107.624 13.6379 106.285 13.6379C104.974 13.6379 104.003 14.5867 104.003 16.0015V20.3201H102.869V12.7766H102.869Z" fill="#007DC3"/>
<path d="M111.171 16.5856V16.5565C111.171 14.4262 112.849 12.6172 115.071 12.6172C116.513 12.6172 117.412 13.2147 118.118 13.9593L117.366 14.7472C116.763 14.1198 116.087 13.6085 115.056 13.6085C113.51 13.6085 112.333 14.908 112.333 16.527V16.5565C112.333 18.1909 113.54 19.4885 115.129 19.4885C116.101 19.4885 116.851 19.0071 117.456 18.3655L118.176 19.0362C117.412 19.8823 116.5 20.4955 115.072 20.4955C112.849 20.4959 111.171 18.6999 111.171 16.5856Z" fill="#007DC3"/>
<path d="M119.781 9.88867H121.076V11.1289H119.781V9.88867ZM119.854 12.7766H120.988V20.3202H119.854V12.7766Z" fill="#007DC3"/>
<path d="M122.695 19.3573L123.269 18.5549C124.094 19.1681 125.006 19.5186 125.903 19.5186C126.815 19.5186 127.478 19.0521 127.478 18.3224V18.2933C127.478 17.5345 126.581 17.2431 125.58 16.9661C124.387 16.6302 123.063 16.2212 123.063 14.8354V14.8063C123.063 13.5079 124.152 12.6465 125.653 12.6465C126.581 12.6465 127.611 12.9678 128.39 13.4784L127.876 14.3252C127.169 13.8725 126.359 13.5952 125.623 13.5952C124.726 13.5952 124.152 14.0617 124.152 14.6887V14.7182C124.152 15.4337 125.094 15.711 126.109 16.0167C127.288 16.3671 128.553 16.8187 128.553 18.1772V18.2052C128.553 19.635 127.361 20.4669 125.845 20.4669C124.755 20.4662 123.548 20.0433 122.695 19.3573Z" fill="#007DC3"/>
<path d="M129.891 16.5856V16.5565C129.891 14.4262 131.569 12.6172 133.793 12.6172C135.235 12.6172 136.132 13.2147 136.838 13.9593L136.088 14.7472C135.485 14.1198 134.807 13.6085 133.777 13.6085C132.232 13.6085 131.054 14.908 131.054 16.527V16.5565C131.054 18.1909 132.262 19.4885 133.851 19.4885C134.822 19.4885 135.573 19.0071 136.176 18.3655L136.898 19.0362C136.132 19.8823 135.22 20.4955 133.793 20.4955C131.569 20.4959 129.891 18.6999 129.891 16.5856Z" fill="#007DC3"/>
<path d="M137.781 16.5856V16.5565C137.781 14.4262 139.459 12.6172 141.754 12.6172C144.036 12.6172 145.714 14.3967 145.714 16.527V16.5565C145.714 18.6865 144.022 20.4959 141.725 20.4959C139.443 20.4959 137.781 18.7152 137.781 16.5856ZM144.552 16.5856V16.5565C144.552 14.9367 143.329 13.6085 141.725 13.6085C140.076 13.6085 138.943 14.9367 138.943 16.527V16.5565C138.943 18.1767 140.149 19.4885 141.754 19.4885C143.403 19.4885 144.552 18.1767 144.552 16.5856Z" fill="#007DC3"/>
<path d="M48.3385 25.2356H50.296L52.7536 32.8082L55.2856 25.208H56.8158L59.3479 32.8082L61.8054 25.2356H63.7042L60.1273 35.5223H58.5527L56.0214 28.1833L53.4893 35.5223H51.9286L48.3385 25.2356Z" fill="#007DC3"/>
<path d="M63.5126 33.2307V33.2027C63.5126 31.5385 64.8229 30.7219 66.7216 30.7219C67.5903 30.7219 68.2078 30.8532 68.8109 31.0425V30.8532C68.8109 29.7582 68.1343 29.1756 66.8828 29.1756C66.0149 29.1756 65.3673 29.3645 64.6613 29.6574L64.1899 28.2709C65.0431 27.8914 65.882 27.6436 67.1189 27.6436C68.2816 27.6436 69.1502 27.95 69.695 28.5038C70.2692 29.0581 70.5343 29.8758 70.5343 30.8824V35.4491H68.7966V34.4869C68.2673 35.1139 67.4574 35.6099 66.2661 35.6099C64.8082 35.6099 63.5126 34.778 63.5126 33.2307ZM68.8411 32.6775V32.1528C68.3843 31.9763 67.7815 31.8449 67.0748 31.8449C65.9268 31.8449 65.2502 32.3267 65.2502 33.1299V33.1586C65.2502 33.9032 65.9121 34.3257 66.7657 34.3257C67.9434 34.3257 68.8411 33.655 68.8411 32.6775Z" fill="#007DC3"/>
<path d="M72.9624 33.3192V29.263H71.9763V27.7459H72.9624V25.6309H74.7434V27.7459H76.8327V29.263H74.7434V33.0419C74.7434 33.7282 75.0965 34.0052 75.7001 34.0052C76.0973 34.0052 76.4501 33.9175 76.804 33.7424V35.1872C76.362 35.4353 75.8767 35.5809 75.2001 35.5809C73.8898 35.5805 72.9624 35.0121 72.9624 33.3192Z" fill="#007DC3"/>
<path d="M77.9219 31.6267V31.5972C77.9219 29.3944 79.4972 27.5854 81.7194 27.5854C84.1924 27.5854 85.4443 29.5109 85.4443 31.7286C85.4443 31.8898 85.4289 32.0492 85.415 32.2246H79.7039C79.8952 33.4805 80.7925 34.1806 81.9401 34.1806C82.8095 34.1806 83.4269 33.8589 84.0456 33.2606L85.0912 34.1806C84.3551 35.0558 83.3396 35.6242 81.9115 35.6242C79.6588 35.6238 77.9219 34.0048 77.9219 31.6267ZM83.677 31.0579C83.5599 29.9192 82.8829 29.0298 81.7048 29.0298C80.6155 29.0298 79.85 29.8606 79.6885 31.0579H83.677Z" fill="#007DC3"/>
<path d="M86.9445 27.7459H88.7254V29.4825C89.2115 28.3289 90.1087 27.5422 91.4781 27.5996V29.4672H91.3746C89.8154 29.4672 88.7258 30.4742 88.7258 32.5168V35.4492H86.9448V27.7459H86.9445Z" fill="#007DC3"/>
<path d="M95.2903 25.2354H99.3518C101.766 25.2354 103.267 26.5935 103.267 28.6503V28.6787C103.267 30.9706 101.412 32.1664 99.1451 32.1664H97.0998V35.4489H95.2899V25.2354H95.2903ZM99.2046 30.5466C100.573 30.5466 101.427 29.7875 101.427 28.7235V28.6944C101.427 27.4982 100.559 26.8697 99.2046 26.8697H97.0998V30.5466H99.2046Z" fill="#FDB913"/>
<path d="M103.753 31.6411V31.612C103.753 29.4081 105.518 27.585 107.903 27.585C110.287 27.585 112.039 29.3798 112.039 31.5821V31.6116C112.039 33.8006 110.273 35.6234 107.874 35.6234C105.504 35.6237 103.753 33.8289 103.753 31.6411ZM110.258 31.6411V31.612C110.258 30.2553 109.272 29.1323 107.874 29.1323C106.446 29.1323 105.534 30.24 105.534 31.5825V31.612C105.534 32.9537 106.52 34.0779 107.903 34.0779C109.346 34.0779 110.258 32.969 110.258 31.6411Z" fill="#FDB913"/>
<path d="M112.143 27.7459H113.968L115.527 33.027L117.25 27.7168H118.781L120.503 33.027L122.092 27.7459H123.887L121.342 35.5078H119.737L118 30.2401L116.248 35.5078H114.659L112.143 27.7459Z" fill="#FDB913"/>
<path d="M124.373 31.6267V31.5972C124.373 29.3944 125.949 27.5854 128.17 27.5854C130.644 27.5854 131.894 29.5109 131.894 31.7286C131.894 31.8898 131.88 32.0492 131.865 32.2246H126.155C126.346 33.4805 127.243 34.1806 128.391 34.1806C129.259 34.1806 129.877 33.8589 130.495 33.2606L131.541 34.1806C130.805 35.0558 129.79 35.6242 128.361 35.6242C126.109 35.6238 124.373 34.0048 124.373 31.6267ZM130.128 31.0579C130.01 29.9192 129.333 29.0298 128.155 29.0298C127.065 29.0298 126.301 29.8606 126.139 31.0579H130.128Z" fill="#FDB913"/>
<path d="M133.394 27.7459H135.175V29.4825C135.661 28.3289 136.559 27.5422 137.928 27.5996V29.4672H137.826C136.265 29.4672 135.176 30.4742 135.176 32.5168V35.4492H133.395V27.7459H133.394Z" fill="#FDB913"/>
<path d="M141.048 33.9604L142.137 32.6773C143.124 33.5234 144.124 34.0045 145.391 34.0045C146.51 34.0045 147.216 33.4797 147.216 32.7209V32.6915C147.216 31.9614 146.804 31.5684 144.89 31.1299C142.697 30.6052 141.461 29.9625 141.461 28.0803V28.0523C141.461 26.3005 142.933 25.0894 144.979 25.0894C146.48 25.0894 147.672 25.5417 148.717 26.3736L147.746 27.7299C146.819 27.0454 145.891 26.68 144.949 26.68C143.889 26.68 143.272 27.2208 143.272 27.8915V27.921C143.272 28.7077 143.743 29.0578 145.729 29.5258C147.908 30.0506 149.027 30.8239 149.027 32.5164V32.5459C149.027 34.4572 147.51 35.594 145.347 35.594C143.771 35.594 142.284 35.0551 141.048 33.9604Z" fill="#8DC63F"/>
<path d="M150.306 31.6267V31.5972C150.306 29.3944 151.881 27.5854 154.104 27.5854C156.576 27.5854 157.827 29.5109 157.827 31.7286C157.827 31.8898 157.813 32.0492 157.798 32.2246H152.087C152.279 33.4805 153.176 34.1806 154.324 34.1806C155.193 34.1806 155.81 33.8589 156.429 33.2606L157.474 34.1806C156.738 35.0558 155.722 35.6242 154.294 35.6242C152.042 35.6238 150.306 34.0048 150.306 31.6267ZM156.061 31.0579C155.943 29.9192 155.266 29.0298 154.088 29.0298C152.999 29.0298 152.234 29.8606 152.072 31.0579H156.061Z" fill="#8DC63F"/>
<path d="M158.313 27.7459H160.138L161.698 33.027L163.419 27.7168H164.951L166.672 33.027L168.262 27.7459H170.058L167.512 35.5078H165.907L164.17 30.2401L162.419 35.5078H160.829L158.313 27.7459Z" fill="#8DC63F"/>
<path d="M170.544 31.6267V31.5972C170.544 29.3944 172.119 27.5854 174.341 27.5854C176.814 27.5854 178.065 29.5109 178.065 31.7286C178.065 31.8898 178.049 32.0492 178.035 32.2246H172.324C172.516 33.4805 173.413 34.1806 174.561 34.1806C175.43 34.1806 176.048 33.8589 176.666 33.2606L177.711 34.1806C176.976 35.0558 175.959 35.6242 174.532 35.6242C172.28 35.6238 170.544 34.0048 170.544 31.6267ZM176.298 31.0579C176.18 29.9192 175.503 29.0298 174.327 29.0298C173.236 29.0298 172.472 29.8606 172.31 31.0579H176.298Z" fill="#8DC63F"/>
<path d="M179.565 27.7459H181.346V29.4825C181.832 28.3289 182.73 27.5422 184.099 27.5996V29.4672H183.997C182.436 29.4672 181.346 30.4742 181.346 32.5168V35.4492H179.565V27.7459H179.565Z" fill="#8DC63F"/>
</svg>
