<svg width="36" height="24" viewBox="0 0 36 24" fill="none" xmlns="http://www.w3.org/2000/svg">
<path d="M10.2857 24H1.71429C1.25963 24 0.823594 23.8194 0.502103 23.4979C0.180612 23.1764 0 22.7404 0 22.2857V1.71429C0 1.25963 0.180612 0.823594 0.502103 0.502103C0.823594 0.180612 1.25963 0 1.71429 0H13.0714L11.0709 3.42857H3.42857V20.5714H10.2857V24ZM17.7857 24L19.7863 20.5714H27.4286V3.42857H20.5714V0H29.1429C29.5975 0 30.0336 0.180612 30.355 0.502103C30.6765 0.823594 30.8571 1.25963 30.8571 1.71429V22.2857C30.8571 22.7404 30.6765 23.1764 30.355 23.4979C30.0336 23.8194 29.5975 24 29.1429 24H17.7857ZM32.5714 6.85714H36V17.1429H32.5714V6.85714ZM17.1429 10.2857H22.2857L13.7143 24V13.7143H8.57143L17.1429 0V10.2857Z" fill="#03053D"/>
</svg>
