<svg width="40" height="30" viewBox="0 0 40 30" fill="none" xmlns="http://www.w3.org/2000/svg">
<path fill-rule="evenodd" clip-rule="evenodd" d="M35.8998 1.39634C34.3998 0.73308 32.7398 0 29.9998 0C27.2598 0 25.5998 0.73308 24.0998 1.39634L23.9405 1.46493C22.7114 1.99428 21.6682 2.4436 19.9999 2.4436C18.1999 2.4436 17.1999 2.00724 15.8999 1.39634L15.7434 1.32884C14.2849 0.699403 12.6642 0 9.99994 0C7.25761 0 5.62099 0.723732 4.12878 1.38361L4.09997 1.39634C3.23998 1.78034 2.47998 2.11197 1.55999 2.30397C0.659996 2.47851 0 3.10686 0 3.89231V4.01449C0 5.06174 1.07999 5.82973 2.23999 5.62028C3.61742 5.37986 4.67441 4.93338 5.64327 4.52412L5.64348 4.52404C5.72961 4.48765 5.81505 4.45156 5.89996 4.41594L5.95096 4.39334C7.22735 3.82767 8.26302 3.36868 9.99994 3.36868C11.7599 3.36868 12.7999 3.80504 14.0999 4.41594L14.1287 4.42867C15.6209 5.08855 17.2575 5.81228 19.9999 5.81228C22.6642 5.81228 24.2848 5.11288 25.7433 4.48344L25.8998 4.41594L26.0592 4.34735C27.2882 3.81799 28.3314 3.36868 29.9998 3.36868C31.7998 3.36868 32.7998 3.80504 34.0998 4.41594L34.2271 4.47155C35.2315 4.91052 36.3208 5.38657 37.7598 5.63774C38.9197 5.82973 39.9997 5.06174 39.9997 4.03194V3.87485C39.9997 3.07196 39.3197 2.4436 38.4198 2.26906C37.4998 2.09452 36.7598 1.78034 35.8998 1.39634ZM24.1699 16.8659C25.653 16.2271 27.3419 15.4996 30.0001 15.4996C32.7 15.4996 34.4 16.2327 35.9 16.896C36.76 17.2974 37.5 17.629 38.42 17.8036C39.32 17.9781 40 18.6065 40 19.4094V19.5665C40 20.5963 38.92 21.3643 37.76 21.1723C36.321 20.9211 35.2318 20.4451 34.2274 20.0061L34.1 19.9505C32.8 19.3396 31.8 18.9032 30.0001 18.9032C28.2001 18.9032 27.2001 19.3396 25.9001 19.9505L25.7435 20.018C24.285 20.6474 22.6644 21.3468 20.0001 21.3468C17.2578 21.3468 15.6212 20.6231 14.129 19.9632L14.1002 19.9505C12.8002 19.3396 11.8002 18.9032 10.0002 18.9032C8.2002 18.9032 7.2002 19.3396 5.90021 19.9505C5.81557 19.986 5.7304 20.022 5.64453 20.0582L5.64352 20.0587L5.6435 20.0587C4.67465 20.4679 3.61766 20.9144 2.24024 21.1548C1.08024 21.3643 0.000251439 20.5963 0.000251439 19.5665V19.3919C0.000251439 18.6065 0.660247 17.9781 1.54024 17.8036C2.38813 17.6304 3.08956 17.3294 3.85004 17.0031C3.93265 16.9676 4.01596 16.9319 4.10022 16.896L4.25676 16.8285C5.71526 16.199 7.33588 15.4996 10.0002 15.4996C12.7425 15.4996 14.3791 16.2234 15.8713 16.8832L15.9001 16.896C17.2001 17.5069 18.2001 17.9432 20.0001 17.9432C21.6685 17.9432 22.7117 17.4939 23.9407 16.9645L24.1001 16.896L24.1699 16.8659ZM24.1001 24.6629C25.6001 23.9997 27.3001 23.2666 30.0001 23.2666C32.7 23.2666 34.4 23.9997 35.9 24.6804C36.76 25.0818 37.5 25.4135 38.42 25.588C39.32 25.7625 40 26.3909 40 27.1938V27.3509C40 28.3632 38.92 29.1312 37.76 28.9392C36.321 28.6881 35.2318 28.212 34.2274 27.7731L34.2273 27.773L34.1 27.7174C32.8 27.1065 31.8 26.6702 30.0001 26.6702C28.2637 26.6702 27.2045 27.1395 25.9082 27.7138L25.9001 27.7174L25.8713 27.7302C24.3791 28.39 22.7425 29.1138 20.0001 29.1138C17.2578 29.1138 15.6212 28.39 14.129 27.7302L14.1002 27.7174C12.8002 27.1065 11.7602 26.6702 10.0002 26.6702C8.26328 26.6702 7.2276 27.1292 5.95122 27.6948L5.90021 27.7174C4.88022 28.1712 3.76023 28.66 2.28024 28.9218C1.12024 29.1312 0.000251439 28.3807 0.000251439 27.3334V27.1589C0.000251439 26.3734 0.660247 25.7451 1.56024 25.5706C2.48024 25.3786 3.24023 25.0469 4.10022 24.6629L4.12902 24.6502C5.62124 23.9903 7.25786 23.2666 10.0002 23.2666C12.7425 23.2666 14.3791 23.9903 15.8714 24.6502L15.9001 24.6629C17.2001 25.2738 18.2001 25.7102 20.0001 25.7102C21.7365 25.7102 22.7957 25.2409 24.092 24.6665L24.1001 24.6629ZM24.1699 9.09842C25.653 8.45962 27.3419 7.73215 30.0001 7.73215C32.7 7.73215 34.4 8.46523 35.9 9.14595C36.76 9.5474 37.5 9.87903 38.42 10.0536C39.32 10.2281 40 10.8565 40 11.6594V11.8165C40 12.8288 38.92 13.5968 37.76 13.4048C36.321 13.1536 35.2318 12.6776 34.2273 12.2386C34.1848 12.22 34.1423 12.2015 34.1 12.183C32.8 11.5721 31.8 11.1357 30.0001 11.1357C28.3317 11.1357 27.2885 11.5851 26.0595 12.1144C26.0067 12.1371 25.9536 12.16 25.9001 12.183C25.8481 12.2054 25.7959 12.2279 25.7436 12.2505C24.2851 12.8799 22.6644 13.5793 20.0001 13.5793C17.2578 13.5793 15.6212 12.8556 14.129 12.1957L14.1002 12.183C12.8002 11.5721 11.7402 11.1357 10.0002 11.1357C8.33182 11.1357 7.28862 11.5851 6.05959 12.1144C6.00683 12.1371 5.95372 12.16 5.90021 12.183C5.81524 12.2186 5.72973 12.2548 5.64352 12.2912C4.67466 12.7004 3.61767 13.1469 2.24024 13.3873C1.08024 13.5968 0.000251439 12.8288 0.000251439 11.799V11.6419C0.000251439 10.839 0.680247 10.2107 1.58024 10.0361C2.50024 9.86158 3.24023 9.52994 4.10022 9.1285C4.15222 9.10611 4.20438 9.0836 4.25676 9.06099C5.71526 8.43156 7.33588 7.73215 10.0002 7.73215C12.7425 7.73215 14.3791 8.45588 15.8714 9.11576L15.9001 9.1285C17.2001 9.7394 18.2001 10.1758 20.0001 10.1758C21.8001 10.1758 22.8001 9.7394 24.1001 9.1285L24.1699 9.09842Z" fill="#03053D"/>
</svg>
